<?xml version="1.0" standalone="no"?>
<!DOCTYPE svg PUBLIC "-//W3C//DTD SVG 20010904//EN"
 "http://www.w3.org/TR/2001/REC-SVG-20010904/DTD/svg10.dtd">
<svg version="1.0" xmlns="http://www.w3.org/2000/svg"
 width="512.000000pt" height="512.000000pt" viewBox="0 0 512.000000 512.000000"
 preserveAspectRatio="xMidYMid meet">
<metadata>
Created by potrace 1.14, written by Peter Selinger 2001-2017
</metadata>
<g transform="translate(0.000000,512.000000) scale(0.100000,-0.100000)"
fill="#000000" stroke="none">
<path d="M429 5101 c-77 -21 -129 -43 -129 -54 0 -5 -4 -6 -9 -2 -6 3 -14 -3
-20 -12 -6 -10 -11 -14 -11 -10 0 5 -14 -3 -31 -17 -17 -14 -35 -26 -40 -26
-6 0 -7 -4 -4 -10 3 -5 -1 -10 -9 -10 -8 0 -18 -9 -21 -20 -4 -11 -11 -18 -16
-15 -5 4 -9 0 -9 -8 0 -8 -9 -22 -20 -32 -11 -10 -20 -24 -20 -32 0 -7 -3 -13
-8 -13 -9 0 -37 -64 -61 -135 -15 -46 -16 -234 -16 -2145 0 -1152 4 -2117 8
-2145 9 -58 15 -82 27 -110 4 -11 14 -35 22 -52 7 -18 16 -33 20 -33 5 0 8 -7
8 -15 0 -8 5 -15 11 -15 5 0 7 -5 4 -10 -3 -6 1 -13 9 -16 9 -3 16 -12 16 -20
0 -8 3 -14 8 -14 4 0 22 -14 40 -30 31 -28 64 -46 156 -84 35 -14 244 -16
2235 -16 l2196 0 70 21 c96 29 184 99 217 172 7 15 16 27 20 27 5 0 7 3 7 8
-1 4 0 10 1 15 1 4 3 10 5 15 1 4 4 14 7 22 26 66 28 165 27 1380 0 1146 -1
1282 -16 1340 -9 36 -20 67 -25 68 -4 2 -8 12 -8 21 0 28 -72 131 -124 178
-25 23 -46 39 -46 35 0 -4 -4 -2 -8 4 -11 17 -101 60 -162 77 -90 25 -136 29
-305 29 l-160 -1 1 597 c1 663 0 672 -62 799 -70 141 -215 256 -368 294 -66
16 -188 17 -1706 17 -1529 0 -1639 -1 -1701 -17z"/>
</g>
</svg>
